<svg xmlns="http://www.w3.org/2000/svg" viewBox="0 0 512 512" fill="none">
  <rect width="512" height="512" rx="256" fill="#F0DCD0"/>
  
      <ellipse cx="256" cy="270" rx="93" ry="105" fill="#A04020" opacity="0.3" />
      <ellipse cx="256" cy="265" rx="85" ry="98" fill="#A04020" opacity="0.15" />
    
  
      <ellipse cx="180" cy="225" rx="32" ry="60" fill="#A04020" transform="rotate(-12 180 225)" opacity="0.9"/>
      <ellipse cx="180" cy="225" rx="22" ry="50" fill="#A04020" transform="rotate(-12 180 225)" opacity="0.4"/>
      <ellipse cx="332" cy="225" rx="32" ry="60" fill="#A04020" transform="rotate(12 332 225)" opacity="0.9"/>
      <ellipse cx="332" cy="225" rx="22" ry="50" fill="#A04020" transform="rotate(12 332 225)" opacity="0.4"/>
    
  <ellipse cx="256" cy="260" rx="75" ry="90" fill="#A04020"/>
  <ellipse cx="230" cy="262" rx="18" ry="14" fill="white" opacity="0.15"/>
  <ellipse cx="282" cy="262" rx="18" ry="14" fill="white" opacity="0.15"/>
  <ellipse cx="256" cy="285" rx="38" ry="40" fill="white" opacity="0.85"/>
  <ellipse cx="228" cy="240" rx="7" ry="8" fill="#3B1510"/>
  <circle cx="230" cy="239" r="2.5" fill="white" opacity="0.7"/>
  <ellipse cx="284" cy="240" rx="7" ry="8" fill="#3B1510"/>
  <circle cx="286" cy="239" r="2.5" fill="white" opacity="0.7"/>
  <ellipse cx="256" cy="278" rx="14" ry="10" fill="#3B1510" />
  <ellipse cx="256" cy="277" rx="11" ry="4" fill="white" opacity="0.15" />
  <path d="M248 308 Q256 315 264 308" stroke="#3B1510" stroke-width="2" fill="none" stroke-linecap="round"/>
  <ellipse cx="256" cy="316" rx="7" ry="5" fill="#E88B8B" />
</svg>