<svg xmlns="http://www.w3.org/2000/svg" viewBox="0 0 512 512" fill="none">
  <rect width="512" height="512" rx="256" fill="#F8F0E0"/>
  
  
      <ellipse cx="198" cy="195" rx="24" ry="32" fill="#D4C090" transform="rotate(-15 198 195)" />
      <ellipse cx="198" cy="195" rx="16" ry="22" fill="#F8F0E0" transform="rotate(-15 198 195)" opacity="0.4" />
      <ellipse cx="314" cy="195" rx="24" ry="32" fill="#D4C090" transform="rotate(15 314 195)" />
      <ellipse cx="314" cy="195" rx="16" ry="22" fill="#F8F0E0" transform="rotate(15 314 195)" opacity="0.4" />
    
  <ellipse cx="256" cy="270" rx="90" ry="80" fill="#D4C090"/>
  <ellipse cx="230" cy="270" rx="18" ry="14" fill="white" opacity="0.15"/>
  <ellipse cx="282" cy="270" rx="18" ry="14" fill="white" opacity="0.15"/>
  <ellipse cx="256" cy="290" rx="50" ry="28" fill="white" opacity="0.85"/>
  <ellipse cx="224" cy="248" rx="9" ry="10" fill="#1A0F0A"/>
  <circle cx="226" cy="247" r="2.5" fill="white" opacity="0.7"/>
  <ellipse cx="288" cy="248" rx="9" ry="10" fill="#1A0F0A"/>
  <circle cx="290" cy="247" r="2.5" fill="white" opacity="0.7"/>
  <ellipse cx="256" cy="282" rx="18" ry="10" fill="#1A0F0A" />
  <ellipse cx="256" cy="281" rx="15" ry="4" fill="white" opacity="0.15" />
  <path d="M248 304 Q256 311 264 304" stroke="#1A0F0A" stroke-width="2" fill="none" stroke-linecap="round"/>
  <ellipse cx="256" cy="312" rx="7" ry="5" fill="#E88B8B" />
</svg>